<svg id="Layer_1" data-name="Layer 1" xmlns="http://www.w3.org/2000/svg" viewBox="0 0 32 32"><defs><style>.cls-1{fill:#09152a;}.cls-2{fill:#4cc8ed;}</style></defs><rect class="cls-1" width="32" height="32" rx="16"/><path class="cls-2" d="M9.1,16.41c.11-.89.29-1.68.29-1.68l-6.67-1h0a2.66,2.66,0,0,0,2.56,2.32Z"/><path class="cls-2" d="M9.11,18.63A4.89,4.89,0,0,1,9,17.84,4.8,4.8,0,0,1,9,17l-4.77-.38h0a2.47,2.47,0,0,0,2.44,2Z"/><path class="cls-2" d="M9.27,19.26l-3,0h0a2.39,2.39,0,0,0,2.36,1.53l1.68,0A3.8,3.8,0,0,1,9.27,19.26Z"/><path class="cls-2" d="M13.18,16.56l-.94-.35c-.13.39-.17,1.57.61,1.75s1-.34,1-.34C13,17.79,13.18,16.56,13.18,16.56Z"/><path class="cls-2" d="M21.84,14.76a15.47,15.47,0,0,0,.34-5.69.25.25,0,0,0-.38-.17,30.55,30.55,0,0,0-3.27,2.91,7.83,7.83,0,0,0-5.06,0A30.55,30.55,0,0,0,10.2,8.9a.25.25,0,0,0-.38.17,15.47,15.47,0,0,0,.34,5.69,16.71,16.71,0,0,0-.38,2.82,3.4,3.4,0,0,0,1.49,3,12.46,12.46,0,0,0,2.42,1.66,7.49,7.49,0,0,0,2.31.86,11,11,0,0,0,4.73-2.52,3.4,3.4,0,0,0,1.49-3A16.71,16.71,0,0,0,21.84,14.76Zm-10.91-.64a11.66,11.66,0,0,1-.31-3.76,14.53,14.53,0,0,1,2,1.87A12.9,12.9,0,0,0,10.93,14.12Zm1.62,4.22C11,18,11.33,15.62,11.33,15.62a4.55,4.55,0,0,1,3.49,2.07A2.11,2.11,0,0,1,12.55,18.34Zm4.52,3A1.57,1.57,0,0,1,16,20.91a1.57,1.57,0,0,1-1.07.43,1,1,0,0,1-.83-.6h.28a1.31,1.31,0,0,0,.79.18.76.76,0,0,0,.49-.31.54.54,0,0,0-.11-.7c-.2-.16-.48-.43-.5-.61s.08-.41.43-.41h1c.35,0,.46.13.43.41s-.3.45-.5.61a.54.54,0,0,0-.11.7.76.76,0,0,0,.49.31,1.31,1.31,0,0,0,.79-.18h.28A1,1,0,0,1,17.07,21.34Zm2.38-3a2.11,2.11,0,0,1-2.27-.65,4.55,4.55,0,0,1,3.49-2.07S21,18,19.45,18.34Zm1.62-4.22a12.9,12.9,0,0,0-1.72-1.89,14.53,14.53,0,0,1,2-1.87A11.66,11.66,0,0,1,21.07,14.12Z"/><path class="cls-2" d="M18.82,16.56s.14,1.23-.63,1.06c0,0,.18.52,1,.34s.74-1.36.61-1.75Z"/><path class="cls-2" d="M22.61,14.73s.18.79.29,1.68l3.82-.34a2.66,2.66,0,0,0,2.56-2.32h0Z"/><path class="cls-2" d="M23,17.84a4.89,4.89,0,0,1-.09.79l2.4-.05a2.47,2.47,0,0,0,2.44-2h0L23,17A4.8,4.8,0,0,1,23,17.84Z"/><path class="cls-2" d="M21.68,20.78l1.68,0a2.39,2.39,0,0,0,2.36-1.53h0l-3,0A3.8,3.8,0,0,1,21.68,20.78Z"/></svg>